# xmcd
#
# Track frame offsets:
#	150
#	14974
#	36651
#	54717
#	70770
#	88169
#	103725
#	123237
#	147391
#	171131
#	188619
#
# Disc length: 2712 seconds
#
# Revision: 0
# Processed by: cddbd v1.5.2PL0 Copyright (c) Steve Scherf et al.
# Submitted via: EasyCDDAExtractor 12.0.0.1
#
DISCID=a40a960b
DTITLE=Lucky Peterson   - Heart Of Pain
DYEAR=2010
DGENRE=Blues
TTITLE0=Out Of The Frying Pan
TTITLE1=Heart Of Pain
TTITLE2=A Woman Don't Care
TTITLE3=I Will Survive
TTITLE4=Age Ain't Nothing But A Number
TTITLE5=Oh Baby
TTITLE6=He's the Answer
TTITLE7=Brown Can't Be Bad
TTITLE8=Lucky's 88
TTITLE9=Bound To Make You Love Me
TTITLE10=I Won't Be Fooled
EXTD=
EXTT0=
EXTT1=
EXTT2=
EXTT3=
EXTT4=
EXTT5=
EXTT6=
EXTT7=
EXTT8=
EXTT9=
EXTT10=
PLAYORDER=
